<?xml version="1.0" encoding="utf-8" standalone="no"?>
<!DOCTYPE svg PUBLIC "-//W3C//DTD SVG 1.1//EN"
  "http://www.w3.org/Graphics/SVG/1.1/DTD/svg11.dtd">
<svg xmlns:xlink="http://www.w3.org/1999/xlink" width="1491.344pt" height="519.32pt" viewBox="0 0 1491.344 519.32" xmlns="http://www.w3.org/2000/svg" version="1.1">
 <metadata>
  <rdf:RDF xmlns:dc="http://purl.org/dc/elements/1.1/" xmlns:cc="http://creativecommons.org/ns#" xmlns:rdf="http://www.w3.org/1999/02/22-rdf-syntax-ns#">
   <cc:Work>
    <dc:type rdf:resource="http://purl.org/dc/dcmitype/StillImage"/>
    <dc:date>2023-12-10T12:10:15.211232</dc:date>
    <dc:format>image/svg+xml</dc:format>
    <dc:creator>
     <cc:Agent>
      <dc:title>Matplotlib v3.7.3, https://matplotlib.org/</dc:title>
     </cc:Agent>
    </dc:creator>
   </cc:Work>
  </rdf:RDF>
 </metadata>
 <defs>
  <style type="text/css">*{stroke-linejoin: round; stroke-linecap: butt}</style>
 </defs>
 <g id="figure_1">
  <g id="patch_1">
   <path d="M -0 519.32 
L 1491.344 519.32 
L 1491.344 0 
L -0 0 
z
" style="fill: #ffffff"/>
  </g>
  <g id="axes_1">
   <g id="patch_2">
    <path d="M 66.5 469.32 
L 1070.9 469.32 
L 1070.9 25.8 
L 66.5 25.8 
z
" style="fill: #ffffff"/>
   </g>
   <g id="matplotlib.axis_1">
    <g id="xtick_1">
     <g id="line2d_1">
      <defs>
       <path id="m15062247e9" d="M 0 0 
L 0 3.5 
" style="stroke: #000000; stroke-width: 0.8"/>
      </defs>
      <g>
       <use xlink:href="#m15062247e9" x="112.154545" y="469.32" style="stroke: #000000; stroke-width: 0.8"/>
      </g>
     </g>
     <g id="text_1">
      <!-- 0.0 -->
      <g transform="translate(94.154545 492.82) scale(0.24 -0.24)">
       <defs>
        <path id="SimHei-30" d="M 225 2537 
Q 250 3200 412 3587 
Q 575 3975 875 4225 
Q 1175 4475 1612 4475 
Q 2050 4475 2375 4112 
Q 2700 3750 2800 3200 
Q 2900 2650 2862 1937 
Q 2825 1225 2612 775 
Q 2400 325 1975 150 
Q 1550 -25 1125 187 
Q 700 400 525 750 
Q 350 1100 275 1487 
Q 200 1875 225 2537 
z
M 750 2687 
Q 675 2000 800 1462 
Q 925 925 1212 700 
Q 1500 475 1800 612 
Q 2100 750 2237 1162 
Q 2375 1575 2375 2062 
Q 2375 2550 2337 2950 
Q 2300 3350 2112 3675 
Q 1925 4000 1612 4012 
Q 1300 4025 1062 3700 
Q 825 3375 750 2687 
z
" transform="scale(0.015625)"/>
        <path id="SimHei-2e" d="M 1075 125 
L 500 125 
L 500 675 
L 1075 675 
L 1075 125 
z
" transform="scale(0.015625)"/>
       </defs>
       <use xlink:href="#SimHei-30"/>
       <use xlink:href="#SimHei-2e" x="50"/>
       <use xlink:href="#SimHei-30" x="100"/>
      </g>
     </g>
    </g>
    <g id="xtick_2">
     <g id="line2d_2">
      <g>
       <use xlink:href="#m15062247e9" x="294.772727" y="469.32" style="stroke: #000000; stroke-width: 0.8"/>
      </g>
     </g>
     <g id="text_2">
      <!-- 0.2 -->
      <g transform="translate(276.772727 492.82) scale(0.24 -0.24)">
       <defs>
        <path id="SimHei-32" d="M 300 250 
Q 325 625 650 925 
Q 975 1225 1475 1862 
Q 1975 2500 2125 2850 
Q 2275 3200 2237 3450 
Q 2200 3700 2000 3862 
Q 1800 4025 1537 4000 
Q 1275 3975 1037 3800 
Q 800 3625 675 3275 
L 200 3350 
Q 400 3925 712 4187 
Q 1025 4450 1450 4475 
Q 1700 4500 1900 4462 
Q 2100 4425 2312 4287 
Q 2525 4150 2662 3875 
Q 2800 3600 2762 3212 
Q 2725 2825 2375 2287 
Q 2025 1750 1025 600 
L 2825 600 
L 2825 150 
L 300 150 
L 300 250 
z
" transform="scale(0.015625)"/>
       </defs>
       <use xlink:href="#SimHei-30"/>
       <use xlink:href="#SimHei-2e" x="50"/>
       <use xlink:href="#SimHei-32" x="100"/>
      </g>
     </g>
    </g>
    <g id="xtick_3">
     <g id="line2d_3">
      <g>
       <use xlink:href="#m15062247e9" x="477.390909" y="469.32" style="stroke: #000000; stroke-width: 0.8"/>
      </g>
     </g>
     <g id="text_3">
      <!-- 0.4 -->
      <g transform="translate(459.390909 492.82) scale(0.24 -0.24)">
       <defs>
        <path id="SimHei-34" d="M 2000 1100 
L 75 1100 
L 75 1525 
L 2100 4450 
L 2475 4450 
L 2475 1525 
L 3075 1525 
L 3075 1100 
L 2475 1100 
L 2475 150 
L 2000 150 
L 2000 1100 
z
M 2000 1525 
L 2000 3500 
L 600 1525 
L 2000 1525 
z
" transform="scale(0.015625)"/>
       </defs>
       <use xlink:href="#SimHei-30"/>
       <use xlink:href="#SimHei-2e" x="50"/>
       <use xlink:href="#SimHei-34" x="100"/>
      </g>
     </g>
    </g>
    <g id="xtick_4">
     <g id="line2d_4">
      <g>
       <use xlink:href="#m15062247e9" x="660.009091" y="469.32" style="stroke: #000000; stroke-width: 0.8"/>
      </g>
     </g>
     <g id="text_4">
      <!-- 0.6 -->
      <g transform="translate(642.009091 492.82) scale(0.24 -0.24)">
       <defs>
        <path id="SimHei-36" d="M 250 1612 
Q 275 1975 387 2225 
Q 500 2475 725 2850 
L 1750 4450 
L 2325 4450 
L 1275 2800 
Q 1950 2975 2350 2750 
Q 2750 2525 2887 2237 
Q 3025 1950 3037 1612 
Q 3050 1275 2937 950 
Q 2825 625 2537 362 
Q 2250 100 1737 75 
Q 1225 50 862 262 
Q 500 475 362 862 
Q 225 1250 250 1612 
z
M 1025 787 
Q 1250 550 1625 525 
Q 2000 500 2250 775 
Q 2500 1050 2500 1575 
Q 2500 2100 2187 2300 
Q 1875 2500 1487 2450 
Q 1100 2400 925 2075 
Q 750 1750 775 1387 
Q 800 1025 1025 787 
z
" transform="scale(0.015625)"/>
       </defs>
       <use xlink:href="#SimHei-30"/>
       <use xlink:href="#SimHei-2e" x="50"/>
       <use xlink:href="#SimHei-36" x="100"/>
      </g>
     </g>
    </g>
    <g id="xtick_5">
     <g id="line2d_5">
      <g>
       <use xlink:href="#m15062247e9" x="842.627273" y="469.32" style="stroke: #000000; stroke-width: 0.8"/>
      </g>
     </g>
     <g id="text_5">
      <!-- 0.8 -->
      <g transform="translate(824.627273 492.82) scale(0.24 -0.24)">
       <defs>
        <path id="SimHei-38" d="M 175 1375 
Q 175 1675 325 1962 
Q 475 2250 825 2425 
Q 525 2600 425 2812 
Q 325 3025 312 3300 
Q 300 3575 387 3775 
Q 475 3975 650 4150 
Q 825 4325 1037 4387 
Q 1250 4450 1500 4450 
Q 1750 4450 1950 4400 
Q 2150 4350 2375 4187 
Q 2600 4025 2700 3725 
Q 2800 3425 2687 3025 
Q 2575 2625 2100 2400 
Q 2525 2275 2700 2012 
Q 2875 1750 2875 1375 
Q 2875 1000 2762 775 
Q 2650 550 2512 400 
Q 2375 250 2137 162 
Q 1900 75 1537 75 
Q 1175 75 912 162 
Q 650 250 475 425 
Q 300 600 237 837 
Q 175 1075 175 1375 
z
M 687 1400 
Q 675 1100 787 875 
Q 900 650 1200 587 
Q 1500 525 1825 600 
Q 2150 675 2275 950 
Q 2400 1225 2362 1500 
Q 2325 1775 2050 1962 
Q 1775 2150 1450 2125 
Q 1125 2100 912 1900 
Q 700 1700 687 1400 
z
M 775 3350 
Q 775 3100 950 2875 
Q 1125 2650 1500 2650 
Q 1875 2650 2062 2875 
Q 2250 3100 2237 3412 
Q 2225 3725 2012 3875 
Q 1800 4025 1437 4000 
Q 1075 3975 925 3787 
Q 775 3600 775 3350 
z
" transform="scale(0.015625)"/>
       </defs>
       <use xlink:href="#SimHei-30"/>
       <use xlink:href="#SimHei-2e" x="50"/>
       <use xlink:href="#SimHei-38" x="100"/>
      </g>
     </g>
    </g>
    <g id="xtick_6">
     <g id="line2d_6">
      <g>
       <use xlink:href="#m15062247e9" x="1025.245455" y="469.32" style="stroke: #000000; stroke-width: 0.8"/>
      </g>
     </g>
     <g id="text_6">
      <!-- 1.0 -->
      <g transform="translate(1007.245455 492.82) scale(0.24 -0.24)">
       <defs>
        <path id="SimHei-31" d="M 1400 3600 
Q 1075 3275 575 2975 
L 575 3450 
Q 1200 3875 1600 4450 
L 1900 4450 
L 1900 150 
L 1400 150 
L 1400 3600 
z
" transform="scale(0.015625)"/>
       </defs>
       <use xlink:href="#SimHei-31"/>
       <use xlink:href="#SimHei-2e" x="50"/>
       <use xlink:href="#SimHei-30" x="100"/>
      </g>
     </g>
    </g>
    <g id="text_7">
     <!-- Recall -->
     <g transform="translate(532.7 516.32) scale(0.24 -0.24)">
      <defs>
       <path id="SimHei-52" d="M 3000 125 
L 2400 125 
L 1500 1975 
L 850 1975 
L 850 125 
L 275 125 
L 275 4400 
L 1525 4400 
Q 2125 4400 2500 4112 
Q 2875 3825 2875 3175 
Q 2875 2675 2625 2400 
Q 2375 2125 2050 2050 
L 3000 125 
z
M 2300 3175 
Q 2300 3525 2087 3725 
Q 1875 3925 1400 3925 
L 850 3925 
L 850 2450 
L 1550 2450 
Q 1850 2450 2075 2612 
Q 2300 2775 2300 3175 
z
" transform="scale(0.015625)"/>
       <path id="SimHei-65" d="M 2850 1075 
Q 2800 625 2450 350 
Q 2100 75 1625 75 
Q 1025 75 637 462 
Q 250 850 250 1525 
Q 250 2200 637 2587 
Q 1025 2975 1625 2975 
Q 2150 2975 2487 2637 
Q 2825 2300 2825 1525 
L 800 1525 
Q 800 975 1037 750 
Q 1275 525 1625 525 
Q 1900 525 2075 662 
Q 2250 800 2300 1075 
L 2850 1075 
z
M 2250 1925 
Q 2200 2275 2025 2412 
Q 1850 2550 1575 2550 
Q 1325 2550 1125 2412 
Q 925 2275 825 1925 
L 2250 1925 
z
" transform="scale(0.015625)"/>
       <path id="SimHei-63" d="M 2850 1250 
Q 2850 725 2487 400 
Q 2125 75 1575 75 
Q 1025 75 625 462 
Q 225 850 225 1525 
Q 225 2200 625 2587 
Q 1025 2975 1575 2975 
Q 2125 2975 2450 2687 
Q 2775 2400 2775 2000 
L 2225 2000 
Q 2200 2300 2012 2412 
Q 1825 2525 1575 2525 
Q 1275 2525 1025 2287 
Q 775 2050 775 1525 
Q 775 1000 1025 762 
Q 1275 525 1575 525 
Q 1900 525 2100 700 
Q 2300 875 2300 1250 
L 2850 1250 
z
" transform="scale(0.015625)"/>
       <path id="SimHei-61" d="M 2875 125 
L 2275 125 
Q 2225 175 2200 262 
Q 2175 350 2175 475 
Q 2000 275 1750 175 
Q 1500 75 1225 75 
Q 825 75 550 275 
Q 275 475 275 850 
Q 275 1225 525 1450 
Q 775 1675 1300 1750 
Q 1650 1800 1912 1875 
Q 2175 1950 2175 2075 
Q 2175 2225 2062 2375 
Q 1950 2525 1575 2525 
Q 1275 2525 1137 2412 
Q 1000 2300 950 2100 
L 400 2100 
Q 450 2500 762 2737 
Q 1075 2975 1575 2975 
Q 2125 2975 2400 2725 
Q 2675 2475 2675 2025 
L 2675 650 
Q 2675 500 2725 375 
Q 2775 250 2875 125 
z
M 2175 1050 
L 2175 1550 
Q 2025 1500 1887 1462 
Q 1750 1425 1425 1375 
Q 1050 1325 937 1200 
Q 825 1075 825 900 
Q 825 750 937 637 
Q 1050 525 1275 525 
Q 1500 525 1762 650 
Q 2025 775 2175 1050 
z
" transform="scale(0.015625)"/>
       <path id="SimHei-6c" d="M 1825 125 
L 1325 125 
L 1325 4400 
L 1825 4400 
L 1825 125 
z
" transform="scale(0.015625)"/>
      </defs>
      <use xlink:href="#SimHei-52"/>
      <use xlink:href="#SimHei-65" x="50"/>
      <use xlink:href="#SimHei-63" x="100"/>
      <use xlink:href="#SimHei-61" x="150"/>
      <use xlink:href="#SimHei-6c" x="200"/>
      <use xlink:href="#SimHei-6c" x="250"/>
     </g>
    </g>
   </g>
   <g id="matplotlib.axis_2">
    <g id="ytick_1">
     <g id="line2d_7">
      <defs>
       <path id="m2b9295e2da" d="M 0 0 
L -3.5 0 
" style="stroke: #000000; stroke-width: 0.8"/>
      </defs>
      <g>
       <use xlink:href="#m2b9295e2da" x="66.5" y="449.16" style="stroke: #000000; stroke-width: 0.8"/>
      </g>
     </g>
     <g id="text_8">
      <!-- 0.0 -->
      <g transform="translate(23.5 457.41) scale(0.24 -0.24)">
       <use xlink:href="#SimHei-30"/>
       <use xlink:href="#SimHei-2e" x="50"/>
       <use xlink:href="#SimHei-30" x="100"/>
      </g>
     </g>
    </g>
    <g id="ytick_2">
     <g id="line2d_8">
      <g>
       <use xlink:href="#m2b9295e2da" x="66.5" y="368.52" style="stroke: #000000; stroke-width: 0.8"/>
      </g>
     </g>
     <g id="text_9">
      <!-- 0.2 -->
      <g transform="translate(23.5 376.77) scale(0.24 -0.24)">
       <use xlink:href="#SimHei-30"/>
       <use xlink:href="#SimHei-2e" x="50"/>
       <use xlink:href="#SimHei-32" x="100"/>
      </g>
     </g>
    </g>
    <g id="ytick_3">
     <g id="line2d_9">
      <g>
       <use xlink:href="#m2b9295e2da" x="66.5" y="287.88" style="stroke: #000000; stroke-width: 0.8"/>
      </g>
     </g>
     <g id="text_10">
      <!-- 0.4 -->
      <g transform="translate(23.5 296.13) scale(0.24 -0.24)">
       <use xlink:href="#SimHei-30"/>
       <use xlink:href="#SimHei-2e" x="50"/>
       <use xlink:href="#SimHei-34" x="100"/>
      </g>
     </g>
    </g>
    <g id="ytick_4">
     <g id="line2d_10">
      <g>
       <use xlink:href="#m2b9295e2da" x="66.5" y="207.24" style="stroke: #000000; stroke-width: 0.8"/>
      </g>
     </g>
     <g id="text_11">
      <!-- 0.6 -->
      <g transform="translate(23.5 215.49) scale(0.24 -0.24)">
       <use xlink:href="#SimHei-30"/>
       <use xlink:href="#SimHei-2e" x="50"/>
       <use xlink:href="#SimHei-36" x="100"/>
      </g>
     </g>
    </g>
    <g id="ytick_5">
     <g id="line2d_11">
      <g>
       <use xlink:href="#m2b9295e2da" x="66.5" y="126.6" style="stroke: #000000; stroke-width: 0.8"/>
      </g>
     </g>
     <g id="text_12">
      <!-- 0.8 -->
      <g transform="translate(23.5 134.85) scale(0.24 -0.24)">
       <use xlink:href="#SimHei-30"/>
       <use xlink:href="#SimHei-2e" x="50"/>
       <use xlink:href="#SimHei-38" x="100"/>
      </g>
     </g>
    </g>
    <g id="ytick_6">
     <g id="line2d_12">
      <g>
       <use xlink:href="#m2b9295e2da" x="66.5" y="45.96" style="stroke: #000000; stroke-width: 0.8"/>
      </g>
     </g>
     <g id="text_13">
      <!-- 1.0 -->
      <g transform="translate(23.5 54.21) scale(0.24 -0.24)">
       <use xlink:href="#SimHei-31"/>
       <use xlink:href="#SimHei-2e" x="50"/>
       <use xlink:href="#SimHei-30" x="100"/>
      </g>
     </g>
    </g>
    <g id="text_14">
     <!-- Precision -->
     <g transform="translate(16.5 301.56) rotate(-90) scale(0.24 -0.24)">
      <defs>
       <path id="SimHei-50" d="M 2950 3100 
Q 2950 2500 2600 2150 
Q 2250 1800 1625 1800 
L 900 1800 
L 900 125 
L 325 125 
L 325 4400 
L 1625 4400 
Q 2250 4400 2600 4050 
Q 2950 3700 2950 3100 
z
M 2375 3100 
Q 2375 3575 2150 3750 
Q 1925 3925 1475 3925 
L 900 3925 
L 900 2275 
L 1475 2275 
Q 1925 2275 2150 2450 
Q 2375 2625 2375 3100 
z
" transform="scale(0.015625)"/>
       <path id="SimHei-72" d="M 2500 2425 
Q 2025 2500 1700 2287 
Q 1375 2075 1150 1550 
L 1150 125 
L 650 125 
L 650 2925 
L 1150 2925 
L 1150 2200 
Q 1375 2600 1712 2787 
Q 2050 2975 2500 2975 
L 2500 2425 
z
" transform="scale(0.015625)"/>
       <path id="SimHei-69" d="M 1800 3725 
L 1300 3725 
L 1300 4375 
L 1800 4375 
L 1800 3725 
z
M 1800 125 
L 1300 125 
L 1300 2925 
L 1800 2925 
L 1800 125 
z
" transform="scale(0.015625)"/>
       <path id="SimHei-73" d="M 2750 900 
Q 2750 500 2437 287 
Q 2125 75 1650 75 
Q 1050 75 725 312 
Q 400 550 400 1000 
L 900 1000 
Q 900 700 1112 600 
Q 1325 500 1625 500 
Q 1925 500 2075 612 
Q 2225 725 2225 900 
Q 2225 1025 2100 1150 
Q 1975 1275 1475 1350 
Q 900 1425 687 1637 
Q 475 1850 475 2200 
Q 475 2500 762 2737 
Q 1050 2975 1600 2975 
Q 2100 2975 2387 2750 
Q 2675 2525 2675 2150 
L 2175 2150 
Q 2175 2375 2012 2462 
Q 1850 2550 1600 2550 
Q 1275 2550 1137 2437 
Q 1000 2325 1000 2175 
Q 1000 2000 1125 1900 
Q 1250 1800 1650 1750 
Q 2300 1650 2525 1437 
Q 2750 1225 2750 900 
z
" transform="scale(0.015625)"/>
       <path id="SimHei-6f" d="M 2925 1525 
Q 2925 875 2525 475 
Q 2125 75 1575 75 
Q 1025 75 625 475 
Q 225 875 225 1525 
Q 225 2175 625 2575 
Q 1025 2975 1575 2975 
Q 2125 2975 2525 2575 
Q 2925 2175 2925 1525 
z
M 2375 1525 
Q 2375 2025 2125 2275 
Q 1875 2525 1575 2525 
Q 1275 2525 1025 2275 
Q 775 2025 775 1525 
Q 775 1025 1025 775 
Q 1275 525 1575 525 
Q 1875 525 2125 775 
Q 2375 1025 2375 1525 
z
" transform="scale(0.015625)"/>
       <path id="SimHei-6e" d="M 2800 125 
L 2300 125 
L 2300 1925 
Q 2300 2225 2150 2400 
Q 2000 2575 1750 2575 
Q 1425 2575 1137 2237 
Q 850 1900 850 1400 
L 850 125 
L 350 125 
L 350 2925 
L 850 2925 
L 850 2400 
Q 1050 2675 1287 2825 
Q 1525 2975 1900 2975 
Q 2350 2975 2575 2725 
Q 2800 2475 2800 2100 
L 2800 125 
z
" transform="scale(0.015625)"/>
      </defs>
      <use xlink:href="#SimHei-50"/>
      <use xlink:href="#SimHei-72" x="50"/>
      <use xlink:href="#SimHei-65" x="100"/>
      <use xlink:href="#SimHei-63" x="150"/>
      <use xlink:href="#SimHei-69" x="200"/>
      <use xlink:href="#SimHei-73" x="250"/>
      <use xlink:href="#SimHei-69" x="300"/>
      <use xlink:href="#SimHei-6f" x="350"/>
      <use xlink:href="#SimHei-6e" x="400"/>
     </g>
    </g>
   </g>
   <g id="line2d_13">
    <path d="M 1025.245455 321.48 
L 1025.245455 291.53037 
L 1020.439713 292.036701 
L 1020.439713 285.630386 
L 1015.633971 286.145806 
L 1015.633971 274.903448 
L 1010.82823 275.430968 
L 1010.82823 265.261463 
L 1006.022488 265.797653 
L 1006.022488 262.139551 
L 1001.216746 262.68 
L 1001.216746 258.874286 
L 996.411005 259.418824 
L 996.411005 251.849362 
L 991.605263 252.3984 
L 991.605263 241.313239 
L 986.799522 241.865085 
L 986.799522 239.496 
L 981.99378 240.050544 
L 981.99378 229.343133 
L 977.188038 229.89716 
L 977.188038 229.232727 
L 972.382297 229.789787 
L 972.382297 226.404444 
L 967.576555 226.963096 
L 967.576555 222.041013 
L 962.770813 222.6 
L 962.770813 217.450909 
L 957.965072 218.009511 
L 957.965072 216.49377 
L 953.15933 217.054737 
L 953.15933 207.516164 
L 943.547847 208.630345 
L 943.547847 206.116098 
L 938.742105 206.676084 
L 938.742105 196.976727 
L 933.936364 197.527883 
L 933.936364 192.850706 
L 929.130622 193.398806 
L 929.130622 189.523636 
L 919.519139 190.619542 
L 919.519139 180.36 
L 914.713397 180.895458 
L 914.713397 174.325714 
L 905.101914 175.382222 
L 905.101914 174.250909 
L 900.296172 174.783237 
L 900.296172 172.487197 
L 895.490431 173.018824 
L 895.490431 169.493617 
L 890.684689 170.021538 
L 890.684689 167.615172 
L 885.878947 168.141818 
L 885.878947 166.92 
L 881.073206 167.44821 
L 881.073206 164.966167 
L 871.461722 166.024 
L 871.461722 163.484664 
L 861.850239 164.548235 
L 861.850239 161.949041 
L 857.044498 162.481101 
L 857.044498 161.16 
L 852.238756 161.693333 
L 852.238756 160.356279 
L 847.433014 160.890841 
L 847.433014 152.575385 
L 837.821531 153.610485 
L 837.821531 146.258507 
L 833.015789 146.76 
L 833.015789 140.588571 
L 823.404306 141.564124 
L 823.404306 128.334194 
L 818.598565 128.779459 
L 818.598565 127.038261 
L 813.792823 127.481311 
L 813.792823 120.292961 
L 808.987081 120.710562 
L 808.987081 118.854915 
L 804.18134 119.269091 
L 804.18134 115.477241 
L 794.569856 116.285581 
L 794.569856 114.338947 
L 789.764115 114.741176 
L 789.764115 112.762367 
L 780.152632 113.562395 
L 780.152632 111.540723 
L 765.735407 112.74773 
L 765.735407 108.568696 
L 756.123923 109.356226 
L 756.123923 105.027516 
L 722.483732 107.784 
L 712.872249 108.619459 
L 712.872249 106.302857 
L 708.066507 106.716164 
L 708.066507 104.354483 
L 703.260766 104.76 
L 703.260766 102.351608 
L 698.455024 102.748732 
L 698.455024 100.291915 
L 693.649282 100.68 
L 693.649282 98.17295 
L 684.037799 98.935182 
L 684.037799 91.094328 
L 679.232057 91.433684 
L 679.232057 85.972214 
L 674.426316 86.28 
L 674.426316 83.466977 
L 669.620574 83.76 
L 669.620574 80.882835 
L 660.009091 81.4416 
L 660.009091 78.476129 
L 626.3689 80.421538 
L 621.563158 80.718621 
L 621.563158 77.514783 
L 602.340191 78.651892 
L 602.340191 71.853578 
L 592.728708 72.33757 
L 592.728708 68.782642 
L 583.117225 69.221538 
L 583.117225 61.771765 
L 554.282775 62.76 
L 554.282775 58.692632 
L 520.642584 59.705455 
L 520.642584 50.648372 
L 462.973684 51.408649 
L 424.527751 52.069091 
L 424.527751 45.96 
L 112.154545 45.96 
L 112.154545 45.96 
" clip-path="url(#p1d91ccb675)" style="fill: none; stroke: #2878b5; stroke-width: 2; stroke-linecap: square"/>
   </g>
   <g id="line2d_14">
    <path d="M 1025.245455 351.72 
L 1025.245455 237.333913 
L 1018.948276 238.029818 
L 1018.948276 202.092766 
L 1012.651097 202.76 
L 1012.651097 191.76 
L 1006.353918 192.413812 
L 1006.353918 182.860465 
L 1000.05674 183.500187 
L 1000.05674 166.318209 
L 993.759561 166.92 
L 993.759561 162.621929 
L 987.462382 163.217143 
L 987.462382 151.049362 
L 974.868025 152.179355 
L 974.868025 145.652308 
L 968.570846 146.203094 
L 968.570846 135.816 
L 955.976489 136.854798 
L 955.976489 127.56 
L 949.67931 128.048623 
L 949.67931 124.156364 
L 937.084953 125.115828 
L 937.084953 116.963774 
L 924.490596 117.86828 
L 924.490596 113.593548 
L 905.59906 114.928421 
L 905.59906 112.714967 
L 880.410345 114.531429 
L 880.410345 102.748732 
L 867.815987 103.56 
L 867.815987 93.395294 
L 861.518809 93.746667 
L 861.518809 88.402105 
L 836.330094 89.71814 
L 836.330094 86.91 
L 823.735737 87.56 
L 823.735737 81.727742 
L 811.141379 82.314098 
L 811.141379 79.282314 
L 804.844201 79.56 
L 804.844201 76.454118 
L 767.061129 78.073274 
L 767.061129 74.76 
L 741.872414 75.826667 
L 741.872414 72.33757 
L 722.980878 73.098462 
L 722.980878 69.447379 
L 716.683699 69.677647 
L 716.683699 65.920396 
L 672.603448 67.406809 
L 634.820376 68.869091 
L 597.037304 70.545366 
L 565.551411 72.141818 
L 552.957053 72.84 
L 552.957053 67.754595 
L 546.659875 68.053151 
L 546.659875 62.76 
L 508.876803 64.287273 
L 483.688088 65.469677 
L 483.688088 59.179672 
L 452.202194 60.36 
L 445.905016 60.621818 
L 445.905016 53.426667 
L 408.121944 54.36 
L 376.63605 55.336744 
L 351.447335 56.298462 
L 326.258621 57.48 
L 307.367085 58.56 
L 288.475549 59.863448 
L 275.881191 60.893333 
L 269.584013 61.467692 
L 269.584013 45.96 
L 112.154545 45.96 
L 112.154545 45.96 
" clip-path="url(#p1d91ccb675)" style="fill: none; stroke: #9ac9db; stroke-width: 2; stroke-linecap: square"/>
   </g>
   <g id="line2d_15">
    <path d="M 1025.245455 353.736 
L 1025.245455 310.529492 
L 1018.815237 311.17165 
L 1018.815237 292.545124 
L 1012.385019 293.226298 
L 1012.385019 284.588571 
L 1005.954802 285.286316 
L 1005.954802 283.836106 
L 999.524584 284.539882 
L 999.524584 195.088767 
L 993.094366 195.772844 
L 993.094366 179.70439 
L 986.664149 180.36 
L 986.664149 173.606231 
L 980.233931 174.250909 
L 980.233931 170.021538 
L 973.803713 170.661031 
L 973.803713 166.286702 
L 967.373496 166.92 
L 967.373496 163.917447 
L 960.943278 164.548235 
L 960.943278 159.907826 
L 954.51306 160.530492 
L 954.51306 158.944615 
L 948.082843 159.56884 
L 948.082843 154.68809 
L 941.652625 155.302373 
L 941.652625 153.632727 
L 935.222407 154.248 
L 935.222407 150.838613 
L 928.79219 151.448372 
L 928.79219 149.707368 
L 922.361972 150.317647 
L 922.361972 143.116627 
L 915.931754 143.705455 
L 915.931754 141.842927 
L 903.071319 143.026667 
L 903.071319 141.125217 
L 896.641101 141.72 
L 896.641101 135.84535 
L 890.210883 136.421538 
L 890.210883 134.403871 
L 883.780666 134.978182 
L 883.780666 130.844211 
L 870.92023 131.976 
L 870.92023 123.286027 
L 851.629577 124.908252 
L 851.629577 122.624789 
L 838.769142 123.72 
L 838.769142 119.003478 
L 825.908707 120.077647 
L 825.908707 117.64 
L 819.478489 118.174925 
L 819.478489 115.686316 
L 813.048271 116.214545 
L 813.048271 113.672977 
L 806.618054 114.193846 
L 806.618054 111.597209 
L 800.187836 112.11 
L 800.187836 109.456063 
L 787.327401 110.472 
L 787.327401 104.964878 
L 755.176312 107.465085 
L 755.176312 101.573793 
L 729.455442 103.56 
L 729.455442 100.446486 
L 723.025224 100.941818 
L 723.025224 91.178692 
L 710.164789 92.04 
L 710.164789 88.606154 
L 703.734571 89.020194 
L 703.734571 85.489412 
L 690.874136 86.28 
L 690.874136 82.614545 
L 665.153265 84.157895 
L 665.153265 80.274894 
L 633.002177 82.202697 
L 600.851088 84.36 
L 600.851088 79.964819 
L 568.7 82.144615 
L 568.7 77.378182 
L 555.839565 78.216 
L 555.839565 73.203243 
L 549.409347 73.576438 
L 549.409347 68.36 
L 517.258259 70.031642 
L 517.258259 58.366154 
L 478.676953 59.627797 
L 446.525864 60.893333 
L 420.804994 62.088 
L 395.084123 63.490435 
L 369.363252 65.16 
L 350.072599 66.636923 
L 330.781946 68.36 
L 317.921511 69.677647 
L 311.491293 70.396364 
L 311.491293 58.56 
L 292.20064 59.863448 
L 279.340205 60.893333 
L 266.47977 62.088 
L 253.619334 63.490435 
L 240.758899 65.16 
L 227.898464 67.181053 
L 221.468246 68.36 
L 215.038028 69.677647 
L 208.60781 71.16 
L 202.177593 72.84 
L 195.747375 74.76 
L 189.317157 76.975385 
L 189.317157 45.96 
L 112.154545 45.96 
L 112.154545 45.96 
" clip-path="url(#p1d91ccb675)" style="fill: none; stroke: #f8ac8c; stroke-width: 2; stroke-linecap: square"/>
   </g>
   <g id="line2d_16">
    <path d="M 1025.245455 402.792 
L 1025.245455 355.487273 
L 1012.012253 356.532973 
L 1012.012253 226.252683 
L 998.779051 227.730492 
L 998.779051 107.20557 
L 985.54585 107.990769 
L 985.54585 103.56 
L 972.312648 104.317895 
L 972.312648 74.76 
L 919.379842 76.505455 
L 919.379842 70.772308 
L 866.447036 72.399344 
L 826.747431 73.766897 
L 826.747431 67.181053 
L 773.814625 68.782642 
L 720.881818 70.645714 
L 720.881818 62.76 
L 667.949012 64.287273 
L 667.949012 55.336744 
L 641.482609 55.794146 
L 641.482609 45.96 
L 112.154545 45.96 
L 112.154545 45.96 
" clip-path="url(#p1d91ccb675)" style="fill: none; stroke: #c82423; stroke-width: 2; stroke-linecap: square"/>
   </g>
   <g id="line2d_17">
    <path d="M 1025.245455 406.824 
L 1025.245455 382.313684 
L 1010.751948 383.201161 
L 1010.751948 375.418407 
L 996.258442 376.393136 
L 996.258442 369.563883 
L 981.764935 370.614545 
L 981.764935 323.16 
L 967.271429 324.611309 
L 967.271429 313.996364 
L 952.777922 315.528 
L 952.777922 312.402105 
L 938.284416 313.969412 
L 938.284416 303.701772 
L 923.790909 305.343439 
L 923.790909 296.597838 
L 909.297403 298.302857 
L 909.297403 281.16 
L 880.31039 284.778462 
L 880.31039 282.21 
L 865.816883 284.070236 
L 865.816883 280.076129 
L 851.323377 281.979512 
L 851.323377 280.60918 
L 836.82987 282.54843 
L 836.82987 279.748235 
L 822.336364 281.729492 
L 822.336364 269.552727 
L 807.842857 271.604037 
L 807.842857 251.674286 
L 778.855844 255.96 
L 778.855844 233.494884 
L 764.362338 235.701176 
L 764.362338 230.55759 
L 749.868831 232.80878 
L 749.868831 209.419459 
L 720.881818 213.96 
L 706.388312 216.326197 
L 706.388312 213 
L 691.894805 215.42087 
L 691.894805 208.443582 
L 677.401299 210.905455 
L 677.401299 191.376393 
L 648.414286 196.305763 
L 648.414286 191.946207 
L 619.427273 197.16 
L 619.427273 187.826667 
L 590.44026 193.283077 
L 590.44026 177.617143 
L 575.946753 180.36 
L 561.453247 183.219574 
L 546.95974 186.203478 
L 532.466234 189.32 
L 532.466234 163.969756 
L 517.972727 166.92 
L 517.972727 159.683077 
L 503.479221 162.675789 
L 503.479221 154.932973 
L 488.985714 157.96 
L 474.492208 161.16 
L 459.998701 164.548235 
L 459.998701 146.76 
L 445.505195 150.011613 
L 431.011688 153.48 
L 431.011688 143.284138 
L 416.518182 146.76 
L 402.024675 150.493333 
L 387.531169 154.513846 
L 373.037662 158.856 
L 358.544156 163.56 
L 344.050649 168.673043 
L 344.050649 155.923636 
L 329.557143 161.16 
L 329.557143 146.76 
L 315.063636 152.065263 
L 300.57013 157.96 
L 286.076623 164.548235 
L 286.076623 146.76 
L 271.583117 153.48 
L 257.08961 161.16 
L 242.596104 170.021538 
L 242.596104 119.269091 
L 228.102597 126.6 
L 213.609091 135.56 
L 199.115584 146.76 
L 199.115584 103.56 
L 184.622078 113.16 
L 170.128571 126.6 
L 155.635065 146.76 
L 141.141558 180.36 
L 126.648052 247.56 
L 112.154545 449.16 
L 112.154545 45.96 
L 112.154545 45.96 
" clip-path="url(#p1d91ccb675)" style="fill: none; stroke: #ff8884; stroke-width: 2; stroke-linecap: square"/>
   </g>
   <g id="line2d_18">
    <path d="M 1025.245455 426.312 
L 1025.245455 337.706341 
L 998.38984 340.097705 
L 998.38984 324.808598 
L 971.534225 327.439245 
L 971.534225 302.541818 
L 917.822995 308.508837 
L 917.822995 271.277647 
L 890.96738 274.640597 
L 890.96738 240.36 
L 864.111765 243.894545 
L 864.111765 144.035676 
L 837.25615 146.76 
L 837.25615 138.12 
L 810.400535 140.830588 
L 810.400535 121.56 
L 783.54492 123.99871 
L 756.689305 126.6 
L 756.689305 103.56 
L 729.83369 105.693333 
L 702.978075 107.990769 
L 676.12246 110.472 
L 676.12246 96.36 
L 649.266845 98.551304 
L 649.266845 82.614545 
L 622.41123 84.36 
L 595.555615 86.28 
L 568.7 88.402105 
L 568.7 68.36 
L 541.844385 69.677647 
L 514.98877 71.16 
L 488.133155 72.84 
L 461.27754 74.76 
L 434.421925 76.975385 
L 407.56631 79.56 
L 380.710695 82.614545 
L 353.85508 86.28 
L 353.85508 45.96 
L 112.154545 45.96 
L 112.154545 45.96 
" clip-path="url(#p1d91ccb675)" style="fill: none; stroke: #c497b2; stroke-width: 2; stroke-linecap: square"/>
   </g>
   <g id="line2d_19">
    <path d="M 1025.245455 377.144 
L 1025.245455 345.87012 
L 1023.825406 345.989653 
L 1023.825406 345.907347 
L 1023.825406 328.14345 
L 1022.405358 328.275435 
L 1022.405358 328.218868 
L 1022.405358 324.964325 
L 1020.98531 325.098462 
L 1020.98531 325.038788 
L 1020.98531 311.018672 
L 1019.565262 311.160643 
L 1019.565262 311.086688 
L 1019.565262 310.267925 
L 1018.145214 310.410485 
L 1018.145214 310.335607 
L 1018.145214 308.437024 
L 1016.725166 308.58069 
L 1016.725166 308.503702 
L 1016.725166 306.392685 
L 1015.305118 306.537531 
L 1015.305118 306.458164 
L 1015.305118 305.900112 
L 1013.88507 306.045411 
L 1013.88507 305.965369 
L 1013.88507 305.483232 
L 1012.465022 305.62895 
L 1012.465022 305.548315 
L 1012.465022 299.494426 
L 1011.044974 299.642953 
L 1011.044974 299.555311 
L 1011.044974 297.330375 
L 1009.624926 297.48 
L 1009.624926 297.389661 
L 1009.624926 279.504607 
L 1008.204878 279.6602 
L 1008.204878 271.368805 
L 1006.78483 271.526434 
L 1006.78483 265.754946 
L 1005.364782 265.913757 
L 1005.364782 263.770526 
L 1003.944733 263.929861 
L 1003.944733 262.702268 
L 1002.524685 262.86199 
L 1002.524685 255.290061 
L 1001.104637 255.450714 
L 1001.104637 255.301935 
L 999.684589 255.462844 
L 999.684589 250.264972 
L 998.264541 250.426351 
L 998.264541 249.79645 
L 996.844493 249.958097 
L 996.844493 245.434453 
L 995.424445 245.596364 
L 995.424445 239.644211 
L 994.004397 239.806154 
L 994.004397 237.505562 
L 992.584349 237.667614 
L 992.584349 233.842171 
L 991.164301 234.004138 
L 991.164301 233.632539 
L 988.324205 233.957232 
L 988.324205 226.043946 
L 986.904157 226.205601 
L 986.904157 225.603564 
L 985.484109 225.765405 
L 985.484109 223.118067 
L 984.064061 223.279708 
L 984.064061 222.866764 
L 982.644012 223.028618 
L 982.644012 220.306667 
L 981.223964 220.468248 
L 981.223964 217.02604 
L 979.803916 217.187119 
L 979.803916 216.968483 
L 978.383868 217.129811 
L 978.383868 215.808956 
L 976.96382 215.970256 
L 976.96382 212.372343 
L 975.543772 212.532973 
L 975.543772 211.385412 
L 974.123724 211.546019 
L 974.123724 211.083735 
L 971.283628 211.405614 
L 971.283628 209.065512 
L 969.86358 209.226207 
L 969.86358 207.320079 
L 968.443532 207.480477 
L 968.443532 206.999044 
L 967.023484 207.159601 
L 967.023484 204.476129 
L 965.603436 204.636085 
L 965.603436 204.141598 
L 964.183388 204.3017 
L 964.183388 202.805621 
L 962.763339 202.965505 
L 962.763339 201.957544 
L 961.343291 202.117377 
L 961.343291 201.864 
L 959.923243 202.024066 
L 959.923243 198.941289 
L 958.503195 199.100479 
L 958.503195 196.736471 
L 957.083147 196.895016 
L 957.083147 196.629474 
L 955.663099 196.78824 
L 955.663099 196.255248 
L 954.243051 196.414123 
L 954.243051 195.878644 
L 952.823003 196.037625 
L 952.823003 192.223079 
L 951.402955 192.38069 
L 951.402955 191.826091 
L 948.562859 192.141818 
L 948.562859 191.863359 
L 947.142811 192.021605 
L 947.142811 190.337293 
L 945.722763 190.495082 
L 945.722763 189.359341 
L 944.302715 189.516923 
L 944.302715 186.923374 
L 942.882666 187.08 
L 942.882666 185.91 
L 941.462618 186.066369 
L 941.462618 185.477133 
L 940.04257 185.633543 
L 940.04257 185.337778 
L 938.622522 185.494382 
L 938.622522 182.800863 
L 934.362378 183.268428 
L 934.362378 182.965245 
L 932.94233 183.121644 
L 932.94233 180.669677 
L 931.522282 180.825052 
L 931.522282 174.164255 
L 930.102234 174.315976 
L 930.102234 173.663915 
L 928.682186 173.815582 
L 928.682186 172.831037 
L 927.262138 172.982434 
L 927.262138 171.657842 
L 925.84209 171.808739 
L 925.84209 171.475385 
L 924.422042 171.626426 
L 924.422042 168.928651 
L 921.581945 169.22821 
L 921.581945 164.724356 
L 918.741849 165.019057 
L 918.741849 164.312239 
L 917.321801 164.459626 
L 917.321801 163.392 
L 915.901753 163.538974 
L 915.901753 162.462513 
L 913.061657 162.75597 
L 913.061657 162.032727 
L 911.641609 162.179469 
L 911.641609 158.132308 
L 910.221561 158.276303 
L 910.221561 157.527568 
L 908.801513 157.67134 
L 908.801513 156.540078 
L 905.961417 156.826926 
L 905.961417 156.066632 
L 904.541369 156.21 
L 904.541369 155.445117 
L 901.701272 155.731728 
L 901.701272 154.961575 
L 900.281224 155.104809 
L 900.281224 151.585532 
L 896.02108 152.008598 
L 896.02108 150.413154 
L 894.601032 150.553548 
L 894.601032 149.748679 
L 891.760936 150.029189 
L 891.760936 149.218537 
L 890.340888 149.358643 
L 890.340888 146.483836 
L 888.92084 146.621728 
L 888.92084 146.206154 
L 886.080744 146.482314 
L 886.080744 145.22639 
L 884.660696 145.363878 
L 884.660696 144.942524 
L 883.240648 145.08 
L 883.240648 142.094642 
L 881.820599 142.229663 
L 881.820599 141.797975 
L 880.400551 141.932958 
L 880.400551 141.499633 
L 874.720359 142.041702 
L 874.720359 141.605455 
L 871.880263 141.877949 
L 871.880263 141.439601 
L 870.460215 141.576 
L 870.460215 141.135966 
L 867.620119 141.409067 
L 867.620119 140.523453 
L 864.780023 140.796364 
L 864.780023 140.350751 
L 863.359975 140.487352 
L 863.359975 139.59135 
L 861.939926 139.727442 
L 861.939926 137.917895 
L 860.519878 138.052533 
L 860.519878 135.75823 
L 859.09983 135.890871 
L 859.09983 134.962667 
L 857.679782 135.094718 
L 857.679782 132.747444 
L 854.839686 133.007676 
L 854.839686 131.100271 
L 853.419638 131.228882 
L 853.419638 130.747897 
L 850.579542 131.00522 
L 850.579542 129.550244 
L 847.739446 129.805872 
L 847.739446 128.826258 
L 846.319398 128.953548 
L 846.319398 126.97391 
L 844.89935 127.099319 
L 844.89935 126.6 
L 842.059253 126.850824 
L 842.059253 126.348785 
L 839.219157 126.6 
L 839.219157 125.080879 
L 837.799109 125.205283 
L 837.799109 124.695118 
L 836.379061 124.819306 
L 836.379061 124.306919 
L 834.959013 124.430886 
L 834.959013 123.91626 
L 833.538965 124.04 
L 833.538965 121.43904 
L 832.118917 121.56 
L 832.118917 120.506624 
L 829.278821 120.747097 
L 829.278821 119.684272 
L 827.858773 119.80376 
L 827.858773 118.732683 
L 823.598629 119.089412 
L 823.598629 118.549198 
L 822.178581 118.668197 
L 822.178581 118.125517 
L 820.758532 118.244211 
L 820.758532 116.603306 
L 819.338484 116.720265 
L 819.338484 115.615814 
L 809.398148 116.435294 
L 809.398148 115.31312 
L 805.138004 115.665763 
L 805.138004 115.099559 
L 800.877859 115.453515 
L 800.877859 110.248388 
L 796.617715 110.58439 
L 796.617715 109.993508 
L 792.357571 110.330526 
L 792.357571 109.735044 
L 790.937523 109.847324 
L 790.937523 108.648339 
L 788.097427 108.870638 
L 788.097427 108.266217 
L 786.677379 108.377082 
L 786.677379 106.548193 
L 782.417235 106.875108 
L 782.417235 106.258378 
L 780.997186 106.36722 
L 780.997186 105.747342 
L 778.15709 105.964356 
L 778.15709 105.340364 
L 773.896946 105.666033 
L 773.896946 105.036923 
L 772.476898 105.145321 
L 772.476898 104.512941 
L 771.05685 104.620773 
L 771.05685 102.706667 
L 765.376658 103.130149 
L 765.376658 102.483364 
L 763.95661 102.589213 
L 763.95661 101.286316 
L 762.536562 101.390508 
L 762.536562 99.414545 
L 756.856369 99.822595 
L 756.856369 98.484138 
L 754.016273 98.686154 
L 754.016273 98.010867 
L 745.495985 98.619649 
L 745.495985 97.935 
L 744.075937 98.036712 
L 744.075937 97.348235 
L 739.815792 97.652308 
L 739.815792 96.260198 
L 736.975696 96.460199 
L 736.975696 95.75761 
L 729.875456 96.258592 
L 729.875456 95.547097 
L 722.775216 96.052057 
L 722.775216 95.331429 
L 717.095023 95.737778 
L 717.095023 95.009072 
L 712.834879 95.314357 
L 712.834879 92.353305 
L 711.414831 92.450566 
L 711.414831 91.701176 
L 709.994783 91.797474 
L 709.994783 91.043544 
L 698.634398 91.817511 
L 698.634398 91.049032 
L 694.374254 91.341818 
L 694.374254 90.56564 
L 691.534158 90.76 
L 691.534158 89.977467 
L 684.433918 90.463311 
L 684.433918 89.669735 
L 681.593822 89.864 
L 681.593822 86.641614 
L 678.753725 86.824865 
L 678.753725 86.006953 
L 677.333677 86.097557 
L 677.333677 85.274286 
L 675.913629 85.363636 
L 675.913629 84.534943 
L 673.073533 84.711487 
L 673.073533 83.875596 
L 667.393341 84.226667 
L 667.393341 82.529302 
L 664.553245 82.700187 
L 664.553245 80.979718 
L 650.352764 81.821538 
L 650.352764 79.15322 
L 633.312187 80.146534 
L 633.312187 79.224 
L 627.631995 79.56 
L 627.631995 78.624304 
L 623.371851 78.874286 
L 623.371851 77.927263 
L 616.27161 78.341347 
L 616.27161 77.378182 
L 613.431514 77.542245 
L 613.431514 76.569424 
L 604.911226 77.057872 
L 604.911226 76.0656 
L 599.231034 76.390189 
L 599.231034 74.369756 
L 597.810985 74.446957 
L 597.810985 73.42594 
L 593.550841 73.652308 
L 593.550841 71.57768 
L 589.290697 71.791755 
L 589.290697 69.677647 
L 587.870649 69.74427 
L 587.870649 68.675493 
L 572.25012 69.40186 
L 572.25012 68.294694 
L 570.830072 68.36 
L 570.830072 67.243284 
L 567.989976 67.36885 
L 567.989976 66.23929 
L 555.209543 66.794043 
L 555.209543 65.628293 
L 553.789495 65.68844 
L 553.789495 64.512147 
L 549.529351 64.684458 
L 549.529351 63.490435 
L 543.849159 63.710943 
L 543.849159 62.495016 
L 533.908822 62.868387 
L 533.908822 61.618252 
L 498.407621 62.99662 
L 468.586611 64.356958 
L 468.586611 62.888244 
L 465.746515 63.018462 
L 465.746515 61.527568 
L 440.18565 62.69029 
L 440.18565 61.08 
L 417.464881 62.16 
L 417.464881 60.424574 
L 401.844352 61.175094 
L 401.844352 59.336303 
L 379.123583 60.433846 
L 379.123583 58.430103 
L 366.34315 59.036757 
L 366.34315 54.773115 
L 339.362237 55.794146 
L 319.481564 56.712 
L 319.481564 54.078121 
L 296.760795 55.054737 
L 296.760795 52.069091 
L 274.040025 52.911724 
L 274.040025 49.466087 
L 247.059112 50.16 
L 227.178439 50.877073 
L 211.55791 51.638873 
L 198.777478 52.463226 
L 187.417093 53.426667 
L 184.576997 53.713846 
L 184.576997 45.96 
L 112.154545 45.96 
L 112.154545 45.96 
" clip-path="url(#p1d91ccb675)" style="fill: none; stroke-dasharray: 7.4,3.2; stroke-dashoffset: 0; stroke: #000000; stroke-width: 2"/>
   </g>
   <g id="patch_3">
    <path d="M 66.5 469.32 
L 66.5 25.8 
" style="fill: none; stroke: #000000; stroke-width: 0.8; stroke-linejoin: miter; stroke-linecap: square"/>
   </g>
   <g id="patch_4">
    <path d="M 1070.9 469.32 
L 1070.9 25.8 
" style="fill: none; stroke: #000000; stroke-width: 0.8; stroke-linejoin: miter; stroke-linecap: square"/>
   </g>
   <g id="patch_5">
    <path d="M 66.5 469.32 
L 1070.9 469.32 
" style="fill: none; stroke: #000000; stroke-width: 0.8; stroke-linejoin: miter; stroke-linecap: square"/>
   </g>
   <g id="patch_6">
    <path d="M 66.5 25.8 
L 1070.9 25.8 
" style="fill: none; stroke: #000000; stroke-width: 0.8; stroke-linejoin: miter; stroke-linecap: square"/>
   </g>
   <g id="text_15">
    <!-- Precision-Recall Curve -->
    <g transform="translate(410.3 19.8) scale(0.288 -0.288)">
     <defs>
      <path id="SimHei-2d" d="M 2975 2125 
L 125 2125 
L 125 2525 
L 2975 2525 
L 2975 2125 
z
" transform="scale(0.015625)"/>
      <path id="SimHei-20" transform="scale(0.015625)"/>
      <path id="SimHei-43" d="M 2975 1825 
Q 2950 875 2575 475 
Q 2200 75 1675 75 
Q 1075 75 650 562 
Q 225 1050 225 2125 
Q 225 3300 637 3875 
Q 1050 4450 1700 4450 
Q 2250 4450 2612 4037 
Q 2975 3625 2950 2875 
L 2400 2875 
Q 2400 3425 2225 3700 
Q 2050 3975 1700 3975 
Q 1300 3975 1062 3562 
Q 825 3150 825 2175 
Q 825 1275 1062 912 
Q 1300 550 1675 550 
Q 1950 550 2175 812 
Q 2400 1075 2400 1825 
L 2975 1825 
z
" transform="scale(0.015625)"/>
      <path id="SimHei-75" d="M 2800 125 
L 2300 125 
L 2300 650 
Q 2100 375 1862 225 
Q 1625 75 1250 75 
Q 800 75 575 325 
Q 350 575 350 950 
L 350 2925 
L 850 2925 
L 850 1125 
Q 850 825 1000 650 
Q 1150 475 1400 475 
Q 1725 475 2012 812 
Q 2300 1150 2300 1650 
L 2300 2925 
L 2800 2925 
L 2800 125 
z
" transform="scale(0.015625)"/>
      <path id="SimHei-76" d="M 2875 2925 
L 1825 75 
L 1275 75 
L 225 2925 
L 750 2925 
L 1525 750 
L 1575 750 
L 2350 2925 
L 2875 2925 
z
" transform="scale(0.015625)"/>
     </defs>
     <use xlink:href="#SimHei-50"/>
     <use xlink:href="#SimHei-72" x="50"/>
     <use xlink:href="#SimHei-65" x="100"/>
     <use xlink:href="#SimHei-63" x="150"/>
     <use xlink:href="#SimHei-69" x="200"/>
     <use xlink:href="#SimHei-73" x="250"/>
     <use xlink:href="#SimHei-69" x="300"/>
     <use xlink:href="#SimHei-6f" x="350"/>
     <use xlink:href="#SimHei-6e" x="400"/>
     <use xlink:href="#SimHei-2d" x="450"/>
     <use xlink:href="#SimHei-52" x="500"/>
     <use xlink:href="#SimHei-65" x="550"/>
     <use xlink:href="#SimHei-63" x="600"/>
     <use xlink:href="#SimHei-61" x="650"/>
     <use xlink:href="#SimHei-6c" x="700"/>
     <use xlink:href="#SimHei-6c" x="750"/>
     <use xlink:href="#SimHei-20" x="800"/>
     <use xlink:href="#SimHei-43" x="850"/>
     <use xlink:href="#SimHei-75" x="900"/>
     <use xlink:href="#SimHei-72" x="950"/>
     <use xlink:href="#SimHei-76" x="1000"/>
     <use xlink:href="#SimHei-65" x="1050"/>
    </g>
   </g>
   <g id="legend_1">
    <g id="patch_7">
     <path d="M 1097.744 300.16875 
L 1486.544 300.16875 
Q 1491.344 300.16875 1491.344 295.36875 
L 1491.344 42.6 
Q 1491.344 37.8 1486.544 37.8 
L 1097.744 37.8 
Q 1092.944 37.8 1092.944 42.6 
L 1092.944 295.36875 
Q 1092.944 300.16875 1097.744 300.16875 
z
" style="fill: #ffffff; opacity: 0.8; stroke: #cccccc; stroke-linejoin: miter"/>
    </g>
    <g id="text_16">
     <!-- all_classes mAP@0.5=0.8459 -->
     <g transform="translate(1136.144 64.18125) scale(0.24 -0.24)">
      <defs>
       <path id="SimHei-5f" d="M 3150 -850 
L 0 -850 
L 0 -550 
L 3150 -550 
L 3150 -850 
z
" transform="scale(0.015625)"/>
       <path id="SimHei-6d" d="M 3050 125 
L 2550 125 
L 2550 2150 
Q 2550 2300 2500 2400 
Q 2450 2500 2300 2500 
Q 2125 2500 1975 2312 
Q 1825 2125 1825 1825 
L 1825 125 
L 1325 125 
L 1325 2150 
Q 1325 2300 1275 2400 
Q 1225 2500 1075 2500 
Q 900 2500 750 2312 
Q 600 2125 600 1825 
L 600 125 
L 100 125 
L 100 2925 
L 600 2925 
L 600 2550 
Q 725 2750 900 2862 
Q 1075 2975 1275 2975 
Q 1475 2975 1612 2862 
Q 1750 2750 1800 2550 
Q 1925 2750 2087 2862 
Q 2250 2975 2450 2975 
Q 2750 2975 2900 2812 
Q 3050 2650 3050 2350 
L 3050 125 
z
" transform="scale(0.015625)"/>
       <path id="SimHei-41" d="M 3075 125 
L 2475 125 
L 2125 1450 
L 1025 1450 
L 675 125 
L 75 125 
L 1325 4450 
L 1825 4450 
L 3075 125 
z
M 2000 1925 
L 1600 3450 
L 1550 3450 
L 1150 1925 
L 2000 1925 
z
" transform="scale(0.015625)"/>
       <path id="SimHei-40" d="M 3000 2650 
Q 3000 1725 2737 1375 
Q 2475 1025 2175 1025 
Q 2050 1025 1950 1100 
Q 1850 1175 1800 1325 
Q 1675 1175 1550 1100 
Q 1425 1025 1300 1025 
Q 1050 1025 875 1237 
Q 700 1450 700 1850 
Q 700 2525 1050 3050 
Q 1400 3575 1725 3575 
Q 1850 3575 1900 3550 
Q 1950 3525 2025 3375 
L 2150 3575 
L 2425 3575 
L 2075 1675 
Q 2050 1525 2100 1450 
Q 2150 1375 2250 1375 
Q 2525 1375 2637 1712 
Q 2750 2050 2750 2650 
Q 2750 3400 2462 3825 
Q 2175 4250 1700 4250 
Q 1175 4250 775 3737 
Q 375 3225 375 2175 
Q 375 1125 750 700 
Q 1125 275 1650 275 
Q 1850 275 2075 387 
Q 2300 500 2425 725 
L 2550 550 
Q 2400 350 2162 212 
Q 1925 75 1650 75 
Q 1025 75 575 562 
Q 125 1050 125 2175 
Q 125 3300 600 3875 
Q 1075 4450 1700 4450 
Q 2300 4450 2650 3950 
Q 3000 3450 3000 2650 
z
M 1950 2975 
Q 1975 3125 1925 3212 
Q 1875 3300 1750 3300 
Q 1550 3300 1325 2837 
Q 1100 2375 1100 1875 
Q 1100 1600 1187 1475 
Q 1275 1350 1400 1350 
Q 1550 1350 1625 1475 
Q 1700 1600 1725 1750 
L 1950 2975 
z
" transform="scale(0.015625)"/>
       <path id="SimHei-35" d="M 550 1325 
Q 725 650 1150 575 
Q 1575 500 1837 662 
Q 2100 825 2212 1087 
Q 2325 1350 2312 1675 
Q 2300 2000 2137 2225 
Q 1975 2450 1725 2525 
Q 1475 2600 1162 2525 
Q 850 2450 650 2175 
L 225 2225 
Q 275 2375 700 4375 
L 2675 4375 
L 2675 3925 
L 1075 3925 
Q 950 3250 825 2850 
Q 1200 3025 1525 3012 
Q 1850 3000 2150 2862 
Q 2450 2725 2587 2487 
Q 2725 2250 2787 2012 
Q 2850 1775 2837 1500 
Q 2825 1225 2725 937 
Q 2625 650 2425 462 
Q 2225 275 1937 162 
Q 1650 50 1275 75 
Q 900 100 562 350 
Q 225 600 100 1200 
L 550 1325 
z
" transform="scale(0.015625)"/>
       <path id="SimHei-3d" d="M 2975 2900 
L 125 2900 
L 125 3300 
L 2975 3300 
L 2975 2900 
z
M 2975 1375 
L 125 1375 
L 125 1775 
L 2975 1775 
L 2975 1375 
z
" transform="scale(0.015625)"/>
       <path id="SimHei-39" d="M 800 75 
Q 1350 1000 1700 1750 
Q 1075 1650 662 1912 
Q 250 2175 162 2625 
Q 75 3075 175 3437 
Q 275 3800 487 4037 
Q 700 4275 1000 4375 
Q 1300 4475 1537 4475 
Q 1775 4475 2025 4375 
Q 2275 4275 2475 4075 
Q 2675 3875 2750 3662 
Q 2825 3450 2825 3112 
Q 2825 2775 2575 2250 
Q 2325 1725 1350 75 
L 800 75 
z
M 662 2875 
Q 700 2550 937 2337 
Q 1175 2125 1450 2150 
Q 1725 2175 1887 2300 
Q 2050 2425 2200 2725 
Q 2300 3100 2250 3362 
Q 2200 3625 1987 3800 
Q 1775 3975 1525 3975 
Q 1375 4000 1137 3900 
Q 900 3800 762 3500 
Q 625 3200 662 2875 
z
" transform="scale(0.015625)"/>
      </defs>
      <use xlink:href="#SimHei-61"/>
      <use xlink:href="#SimHei-6c" x="50"/>
      <use xlink:href="#SimHei-6c" x="100"/>
      <use xlink:href="#SimHei-5f" x="150"/>
      <use xlink:href="#SimHei-63" x="200"/>
      <use xlink:href="#SimHei-6c" x="250"/>
      <use xlink:href="#SimHei-61" x="300"/>
      <use xlink:href="#SimHei-73" x="350"/>
      <use xlink:href="#SimHei-73" x="400"/>
      <use xlink:href="#SimHei-65" x="450"/>
      <use xlink:href="#SimHei-73" x="500"/>
      <use xlink:href="#SimHei-20" x="550"/>
      <use xlink:href="#SimHei-6d" x="600"/>
      <use xlink:href="#SimHei-41" x="650"/>
      <use xlink:href="#SimHei-50" x="700"/>
      <use xlink:href="#SimHei-40" x="750"/>
      <use xlink:href="#SimHei-30" x="800"/>
      <use xlink:href="#SimHei-2e" x="850"/>
      <use xlink:href="#SimHei-35" x="900"/>
      <use xlink:href="#SimHei-3d" x="950"/>
      <use xlink:href="#SimHei-30" x="1000"/>
      <use xlink:href="#SimHei-2e" x="1050"/>
      <use xlink:href="#SimHei-38" x="1100"/>
      <use xlink:href="#SimHei-34" x="1150"/>
      <use xlink:href="#SimHei-35" x="1200"/>
      <use xlink:href="#SimHei-39" x="1250"/>
     </g>
    </g>
    <g id="line2d_20">
     <path d="M 1102.544 87.76875 
L 1126.544 87.76875 
L 1150.544 87.76875 
" style="fill: none; stroke: #2878b5; stroke-width: 2; stroke-linecap: square"/>
    </g>
    <g id="text_17">
     <!-- scab                0.8788 -->
     <g transform="translate(1169.744 96.16875) scale(0.24 -0.24)">
      <defs>
       <path id="SimHei-62" d="M 2825 1525 
Q 2825 800 2475 437 
Q 2125 75 1625 75 
Q 1350 75 1150 175 
Q 950 275 800 500 
L 800 125 
L 300 125 
L 300 4400 
L 800 4400 
L 800 2550 
Q 950 2775 1150 2887 
Q 1350 3000 1625 3000 
Q 2125 3000 2475 2625 
Q 2825 2250 2825 1525 
z
M 2275 1525 
Q 2275 2000 2087 2275 
Q 1900 2550 1525 2550 
Q 1225 2550 1012 2275 
Q 800 2000 800 1525 
Q 800 1050 1012 787 
Q 1225 525 1525 525 
Q 1900 525 2087 787 
Q 2275 1050 2275 1525 
z
" transform="scale(0.015625)"/>
       <path id="SimHei-37" d="M 850 150 
Q 1300 2050 2425 3925 
L 275 3925 
L 275 4375 
L 2950 4375 
L 2950 3950 
Q 1775 2050 1400 150 
L 850 150 
z
" transform="scale(0.015625)"/>
      </defs>
      <use xlink:href="#SimHei-73"/>
      <use xlink:href="#SimHei-63" x="50"/>
      <use xlink:href="#SimHei-61" x="100"/>
      <use xlink:href="#SimHei-62" x="150"/>
      <use xlink:href="#SimHei-20" x="200"/>
      <use xlink:href="#SimHei-20" x="250"/>
      <use xlink:href="#SimHei-20" x="300"/>
      <use xlink:href="#SimHei-20" x="350"/>
      <use xlink:href="#SimHei-20" x="400"/>
      <use xlink:href="#SimHei-20" x="450"/>
      <use xlink:href="#SimHei-20" x="500"/>
      <use xlink:href="#SimHei-20" x="550"/>
      <use xlink:href="#SimHei-20" x="600"/>
      <use xlink:href="#SimHei-20" x="650"/>
      <use xlink:href="#SimHei-20" x="700"/>
      <use xlink:href="#SimHei-20" x="750"/>
      <use xlink:href="#SimHei-20" x="800"/>
      <use xlink:href="#SimHei-20" x="850"/>
      <use xlink:href="#SimHei-20" x="900"/>
      <use xlink:href="#SimHei-20" x="950"/>
      <use xlink:href="#SimHei-30" x="1000"/>
      <use xlink:href="#SimHei-2e" x="1050"/>
      <use xlink:href="#SimHei-38" x="1100"/>
      <use xlink:href="#SimHei-37" x="1150"/>
      <use xlink:href="#SimHei-38" x="1200"/>
      <use xlink:href="#SimHei-38" x="1250"/>
     </g>
    </g>
    <g id="line2d_21">
     <path d="M 1102.544 119.64375 
L 1126.544 119.64375 
L 1150.544 119.64375 
" style="fill: none; stroke: #9ac9db; stroke-width: 2; stroke-linecap: square"/>
    </g>
    <g id="text_18">
     <!-- healthy             0.9259 -->
     <g transform="translate(1169.744 128.04375) scale(0.24 -0.24)">
      <defs>
       <path id="SimHei-68" d="M 2800 125 
L 2300 125 
L 2300 1925 
Q 2300 2225 2150 2400 
Q 2000 2575 1750 2575 
Q 1425 2575 1137 2237 
Q 850 1900 850 1400 
L 850 125 
L 350 125 
L 350 4400 
L 850 4400 
L 850 2400 
Q 1050 2675 1287 2825 
Q 1525 2975 1900 2975 
Q 2350 2975 2575 2725 
Q 2800 2475 2800 2100 
L 2800 125 
z
" transform="scale(0.015625)"/>
       <path id="SimHei-74" d="M 2750 200 
Q 2625 150 2462 112 
Q 2300 75 2025 75 
Q 1575 75 1300 325 
Q 1025 575 1025 1025 
L 1025 2525 
L 175 2525 
L 175 2925 
L 1025 2925 
L 1025 3900 
L 1525 3900 
L 1525 2925 
L 2550 2925 
L 2550 2525 
L 1525 2525 
L 1525 1000 
Q 1525 800 1625 662 
Q 1725 525 2000 525 
Q 2275 525 2450 575 
Q 2625 625 2750 700 
L 2750 200 
z
" transform="scale(0.015625)"/>
       <path id="SimHei-79" d="M 2900 2925 
L 1750 -100 
Q 1650 -450 1450 -625 
Q 1250 -800 950 -800 
Q 825 -800 712 -787 
Q 600 -775 500 -725 
L 500 -225 
Q 600 -275 700 -300 
Q 800 -325 875 -325 
Q 1075 -325 1150 -262 
Q 1225 -200 1300 25 
L 200 2925 
L 750 2925 
L 1550 725 
L 1575 725 
L 2350 2925 
L 2900 2925 
z
" transform="scale(0.015625)"/>
      </defs>
      <use xlink:href="#SimHei-68"/>
      <use xlink:href="#SimHei-65" x="50"/>
      <use xlink:href="#SimHei-61" x="100"/>
      <use xlink:href="#SimHei-6c" x="150"/>
      <use xlink:href="#SimHei-74" x="200"/>
      <use xlink:href="#SimHei-68" x="250"/>
      <use xlink:href="#SimHei-79" x="300"/>
      <use xlink:href="#SimHei-20" x="350"/>
      <use xlink:href="#SimHei-20" x="400"/>
      <use xlink:href="#SimHei-20" x="450"/>
      <use xlink:href="#SimHei-20" x="500"/>
      <use xlink:href="#SimHei-20" x="550"/>
      <use xlink:href="#SimHei-20" x="600"/>
      <use xlink:href="#SimHei-20" x="650"/>
      <use xlink:href="#SimHei-20" x="700"/>
      <use xlink:href="#SimHei-20" x="750"/>
      <use xlink:href="#SimHei-20" x="800"/>
      <use xlink:href="#SimHei-20" x="850"/>
      <use xlink:href="#SimHei-20" x="900"/>
      <use xlink:href="#SimHei-20" x="950"/>
      <use xlink:href="#SimHei-30" x="1000"/>
      <use xlink:href="#SimHei-2e" x="1050"/>
      <use xlink:href="#SimHei-39" x="1100"/>
      <use xlink:href="#SimHei-32" x="1150"/>
      <use xlink:href="#SimHei-35" x="1200"/>
      <use xlink:href="#SimHei-39" x="1250"/>
     </g>
    </g>
    <g id="line2d_22">
     <path d="M 1102.544 151.51875 
L 1126.544 151.51875 
L 1150.544 151.51875 
" style="fill: none; stroke: #f8ac8c; stroke-width: 2; stroke-linecap: square"/>
    </g>
    <g id="text_19">
     <!-- frog_eye_leaf_spot  0.8831 -->
     <g transform="translate(1169.744 159.91875) scale(0.24 -0.24)">
      <defs>
       <path id="SimHei-66" d="M 2850 3825 
Q 2725 3900 2550 3950 
Q 2375 4000 2100 4000 
Q 1825 4000 1725 3862 
Q 1625 3725 1625 3525 
L 1625 2925 
L 2650 2925 
L 2650 2525 
L 1625 2525 
L 1625 125 
L 1125 125 
L 1125 2525 
L 275 2525 
L 275 2925 
L 1125 2925 
L 1125 3500 
Q 1125 3950 1400 4200 
Q 1675 4450 2125 4450 
Q 2400 4450 2562 4412 
Q 2725 4375 2850 4325 
L 2850 3825 
z
" transform="scale(0.015625)"/>
       <path id="SimHei-67" d="M 2975 2500 
Q 2800 2550 2637 2562 
Q 2475 2575 2300 2525 
Q 2375 2450 2425 2337 
Q 2475 2225 2475 2000 
Q 2475 1575 2187 1300 
Q 1900 1025 1475 1025 
Q 1375 1025 1212 1062 
Q 1050 1100 950 1150 
Q 875 1100 850 1050 
Q 825 1000 825 925 
Q 825 800 1000 737 
Q 1175 675 1625 675 
Q 2350 675 2612 475 
Q 2875 275 2875 -25 
Q 2875 -425 2487 -612 
Q 2100 -800 1575 -800 
Q 900 -800 575 -625 
Q 250 -450 250 -150 
Q 250 0 375 150 
Q 500 300 700 400 
Q 550 475 462 587 
Q 375 700 375 875 
Q 375 1025 487 1137 
Q 600 1250 750 1325 
Q 625 1450 550 1625 
Q 475 1800 475 2000 
Q 475 2425 762 2700 
Q 1050 2975 1475 2975 
Q 1700 2975 1862 2912 
Q 2025 2850 2150 2725 
Q 2350 2875 2550 2937 
Q 2750 3000 2975 2975 
L 2975 2500 
z
M 1975 2000 
Q 1975 2250 1850 2400 
Q 1725 2550 1475 2550 
Q 1225 2550 1100 2400 
Q 975 2250 975 2000 
Q 975 1750 1100 1600 
Q 1225 1450 1475 1450 
Q 1725 1450 1850 1600 
Q 1975 1750 1975 2000 
z
M 2400 -75 
Q 2400 25 2287 125 
Q 2175 225 1725 225 
Q 1625 225 1450 237 
Q 1275 250 1050 275 
Q 850 200 775 100 
Q 700 0 700 -100 
Q 700 -250 900 -350 
Q 1100 -450 1600 -450 
Q 2025 -450 2212 -337 
Q 2400 -225 2400 -75 
z
" transform="scale(0.015625)"/>
       <path id="SimHei-70" d="M 2825 1525 
Q 2825 800 2475 425 
Q 2125 50 1625 50 
Q 1350 50 1150 162 
Q 950 275 800 500 
L 800 -800 
L 300 -800 
L 300 2925 
L 800 2925 
L 800 2550 
Q 950 2775 1150 2875 
Q 1350 2975 1625 2975 
Q 2125 2975 2475 2612 
Q 2825 2250 2825 1525 
z
M 2275 1525 
Q 2275 2000 2087 2262 
Q 1900 2525 1525 2525 
Q 1225 2525 1012 2262 
Q 800 2000 800 1525 
Q 800 1050 1012 775 
Q 1225 500 1525 500 
Q 1900 500 2087 775 
Q 2275 1050 2275 1525 
z
" transform="scale(0.015625)"/>
       <path id="SimHei-33" d="M 250 1225 
L 700 1300 
Q 800 975 1025 762 
Q 1250 550 1587 562 
Q 1925 575 2125 837 
Q 2325 1100 2300 1437 
Q 2275 1775 2037 1962 
Q 1800 2150 1275 2225 
L 1275 2550 
Q 1800 2600 2037 2825 
Q 2275 3050 2250 3412 
Q 2225 3775 1925 3937 
Q 1625 4100 1287 3975 
Q 950 3850 750 3275 
L 300 3350 
Q 450 3800 712 4100 
Q 975 4400 1425 4450 
Q 1875 4500 2212 4337 
Q 2550 4175 2687 3837 
Q 2825 3500 2725 3100 
Q 2625 2700 2150 2400 
Q 2500 2250 2687 1950 
Q 2875 1650 2812 1162 
Q 2750 675 2375 375 
Q 2000 75 1525 87 
Q 1050 100 700 387 
Q 350 675 250 1225 
z
" transform="scale(0.015625)"/>
      </defs>
      <use xlink:href="#SimHei-66"/>
      <use xlink:href="#SimHei-72" x="50"/>
      <use xlink:href="#SimHei-6f" x="100"/>
      <use xlink:href="#SimHei-67" x="150"/>
      <use xlink:href="#SimHei-5f" x="200"/>
      <use xlink:href="#SimHei-65" x="250"/>
      <use xlink:href="#SimHei-79" x="300"/>
      <use xlink:href="#SimHei-65" x="350"/>
      <use xlink:href="#SimHei-5f" x="400"/>
      <use xlink:href="#SimHei-6c" x="450"/>
      <use xlink:href="#SimHei-65" x="500"/>
      <use xlink:href="#SimHei-61" x="550"/>
      <use xlink:href="#SimHei-66" x="600"/>
      <use xlink:href="#SimHei-5f" x="650"/>
      <use xlink:href="#SimHei-73" x="700"/>
      <use xlink:href="#SimHei-70" x="750"/>
      <use xlink:href="#SimHei-6f" x="800"/>
      <use xlink:href="#SimHei-74" x="850"/>
      <use xlink:href="#SimHei-20" x="900"/>
      <use xlink:href="#SimHei-20" x="950"/>
      <use xlink:href="#SimHei-30" x="1000"/>
      <use xlink:href="#SimHei-2e" x="1050"/>
      <use xlink:href="#SimHei-38" x="1100"/>
      <use xlink:href="#SimHei-38" x="1150"/>
      <use xlink:href="#SimHei-33" x="1200"/>
      <use xlink:href="#SimHei-31" x="1250"/>
     </g>
    </g>
    <g id="line2d_23">
     <path d="M 1102.544 183.50625 
L 1126.544 183.50625 
L 1150.544 183.50625 
" style="fill: none; stroke: #c82423; stroke-width: 2; stroke-linecap: square"/>
    </g>
    <g id="text_20">
     <!-- rust                0.9574 -->
     <g transform="translate(1169.744 191.90625) scale(0.24 -0.24)">
      <use xlink:href="#SimHei-72"/>
      <use xlink:href="#SimHei-75" x="50"/>
      <use xlink:href="#SimHei-73" x="100"/>
      <use xlink:href="#SimHei-74" x="150"/>
      <use xlink:href="#SimHei-20" x="200"/>
      <use xlink:href="#SimHei-20" x="250"/>
      <use xlink:href="#SimHei-20" x="300"/>
      <use xlink:href="#SimHei-20" x="350"/>
      <use xlink:href="#SimHei-20" x="400"/>
      <use xlink:href="#SimHei-20" x="450"/>
      <use xlink:href="#SimHei-20" x="500"/>
      <use xlink:href="#SimHei-20" x="550"/>
      <use xlink:href="#SimHei-20" x="600"/>
      <use xlink:href="#SimHei-20" x="650"/>
      <use xlink:href="#SimHei-20" x="700"/>
      <use xlink:href="#SimHei-20" x="750"/>
      <use xlink:href="#SimHei-20" x="800"/>
      <use xlink:href="#SimHei-20" x="850"/>
      <use xlink:href="#SimHei-20" x="900"/>
      <use xlink:href="#SimHei-20" x="950"/>
      <use xlink:href="#SimHei-30" x="1000"/>
      <use xlink:href="#SimHei-2e" x="1050"/>
      <use xlink:href="#SimHei-39" x="1100"/>
      <use xlink:href="#SimHei-35" x="1150"/>
      <use xlink:href="#SimHei-37" x="1200"/>
      <use xlink:href="#SimHei-34" x="1250"/>
     </g>
    </g>
    <g id="line2d_24">
     <path d="M 1102.544 215.30625 
L 1126.544 215.30625 
L 1150.544 215.30625 
" style="fill: none; stroke: #ff8884; stroke-width: 2; stroke-linecap: square"/>
    </g>
    <g id="text_21">
     <!-- complex             0.5947 -->
     <g transform="translate(1169.744 223.70625) scale(0.24 -0.24)">
      <defs>
       <path id="SimHei-78" d="M 2875 125 
L 2275 125 
L 1550 1200 
L 825 125 
L 225 125 
L 1250 1550 
L 300 2925 
L 900 2925 
L 1550 1875 
L 2200 2925 
L 2800 2925 
L 1850 1550 
L 2875 125 
z
" transform="scale(0.015625)"/>
      </defs>
      <use xlink:href="#SimHei-63"/>
      <use xlink:href="#SimHei-6f" x="50"/>
      <use xlink:href="#SimHei-6d" x="100"/>
      <use xlink:href="#SimHei-70" x="150"/>
      <use xlink:href="#SimHei-6c" x="200"/>
      <use xlink:href="#SimHei-65" x="250"/>
      <use xlink:href="#SimHei-78" x="300"/>
      <use xlink:href="#SimHei-20" x="350"/>
      <use xlink:href="#SimHei-20" x="400"/>
      <use xlink:href="#SimHei-20" x="450"/>
      <use xlink:href="#SimHei-20" x="500"/>
      <use xlink:href="#SimHei-20" x="550"/>
      <use xlink:href="#SimHei-20" x="600"/>
      <use xlink:href="#SimHei-20" x="650"/>
      <use xlink:href="#SimHei-20" x="700"/>
      <use xlink:href="#SimHei-20" x="750"/>
      <use xlink:href="#SimHei-20" x="800"/>
      <use xlink:href="#SimHei-20" x="850"/>
      <use xlink:href="#SimHei-20" x="900"/>
      <use xlink:href="#SimHei-20" x="950"/>
      <use xlink:href="#SimHei-30" x="1000"/>
      <use xlink:href="#SimHei-2e" x="1050"/>
      <use xlink:href="#SimHei-35" x="1100"/>
      <use xlink:href="#SimHei-39" x="1150"/>
      <use xlink:href="#SimHei-34" x="1200"/>
      <use xlink:href="#SimHei-37" x="1250"/>
     </g>
    </g>
    <g id="line2d_25">
     <path d="M 1102.544 247.18125 
L 1126.544 247.18125 
L 1150.544 247.18125 
" style="fill: none; stroke: #c497b2; stroke-width: 2; stroke-linecap: square"/>
    </g>
    <g id="text_22">
     <!-- powdery_mildew      0.8210 -->
     <g transform="translate(1169.744 255.58125) scale(0.24 -0.24)">
      <defs>
       <path id="SimHei-77" d="M 3075 2925 
L 2450 75 
L 1975 75 
L 1575 2250 
L 1525 2250 
L 1125 75 
L 650 75 
L 25 2925 
L 550 2925 
L 875 1050 
L 925 1050 
L 1275 2925 
L 1825 2925 
L 2175 1050 
L 2225 1050 
L 2550 2925 
L 3075 2925 
z
" transform="scale(0.015625)"/>
       <path id="SimHei-64" d="M 2750 125 
L 2250 125 
L 2250 500 
Q 2100 275 1900 175 
Q 1700 75 1425 75 
Q 925 75 575 437 
Q 225 800 225 1525 
Q 225 2250 575 2625 
Q 925 3000 1425 3000 
Q 1700 3000 1900 2887 
Q 2100 2775 2250 2550 
L 2250 4400 
L 2750 4400 
L 2750 125 
z
M 2250 1525 
Q 2250 2000 2037 2275 
Q 1825 2550 1525 2550 
Q 1150 2550 962 2275 
Q 775 2000 775 1525 
Q 775 1050 962 787 
Q 1150 525 1525 525 
Q 1825 525 2037 787 
Q 2250 1050 2250 1525 
z
" transform="scale(0.015625)"/>
      </defs>
      <use xlink:href="#SimHei-70"/>
      <use xlink:href="#SimHei-6f" x="50"/>
      <use xlink:href="#SimHei-77" x="100"/>
      <use xlink:href="#SimHei-64" x="150"/>
      <use xlink:href="#SimHei-65" x="200"/>
      <use xlink:href="#SimHei-72" x="250"/>
      <use xlink:href="#SimHei-79" x="300"/>
      <use xlink:href="#SimHei-5f" x="350"/>
      <use xlink:href="#SimHei-6d" x="400"/>
      <use xlink:href="#SimHei-69" x="450"/>
      <use xlink:href="#SimHei-6c" x="500"/>
      <use xlink:href="#SimHei-64" x="550"/>
      <use xlink:href="#SimHei-65" x="600"/>
      <use xlink:href="#SimHei-77" x="650"/>
      <use xlink:href="#SimHei-20" x="700"/>
      <use xlink:href="#SimHei-20" x="750"/>
      <use xlink:href="#SimHei-20" x="800"/>
      <use xlink:href="#SimHei-20" x="850"/>
      <use xlink:href="#SimHei-20" x="900"/>
      <use xlink:href="#SimHei-20" x="950"/>
      <use xlink:href="#SimHei-30" x="1000"/>
      <use xlink:href="#SimHei-2e" x="1050"/>
      <use xlink:href="#SimHei-38" x="1100"/>
      <use xlink:href="#SimHei-32" x="1150"/>
      <use xlink:href="#SimHei-31" x="1200"/>
      <use xlink:href="#SimHei-30" x="1250"/>
     </g>
    </g>
    <g id="line2d_26">
     <path d="M 1102.544 279.16875 
L 1126.544 279.16875 
L 1150.544 279.16875 
" style="fill: none; stroke-dasharray: 7.4,3.2; stroke-dashoffset: 0; stroke: #000000; stroke-width: 2"/>
    </g>
    <g id="text_23">
     <!-- all-classes         0.8808 -->
     <g transform="translate(1169.744 287.56875) scale(0.24 -0.24)">
      <use xlink:href="#SimHei-61"/>
      <use xlink:href="#SimHei-6c" x="50"/>
      <use xlink:href="#SimHei-6c" x="100"/>
      <use xlink:href="#SimHei-2d" x="150"/>
      <use xlink:href="#SimHei-63" x="200"/>
      <use xlink:href="#SimHei-6c" x="250"/>
      <use xlink:href="#SimHei-61" x="300"/>
      <use xlink:href="#SimHei-73" x="350"/>
      <use xlink:href="#SimHei-73" x="400"/>
      <use xlink:href="#SimHei-65" x="450"/>
      <use xlink:href="#SimHei-73" x="500"/>
      <use xlink:href="#SimHei-20" x="550"/>
      <use xlink:href="#SimHei-20" x="600"/>
      <use xlink:href="#SimHei-20" x="650"/>
      <use xlink:href="#SimHei-20" x="700"/>
      <use xlink:href="#SimHei-20" x="750"/>
      <use xlink:href="#SimHei-20" x="800"/>
      <use xlink:href="#SimHei-20" x="850"/>
      <use xlink:href="#SimHei-20" x="900"/>
      <use xlink:href="#SimHei-20" x="950"/>
      <use xlink:href="#SimHei-30" x="1000"/>
      <use xlink:href="#SimHei-2e" x="1050"/>
      <use xlink:href="#SimHei-38" x="1100"/>
      <use xlink:href="#SimHei-38" x="1150"/>
      <use xlink:href="#SimHei-30" x="1200"/>
      <use xlink:href="#SimHei-38" x="1250"/>
     </g>
    </g>
   </g>
  </g>
 </g>
 <defs>
  <clipPath id="p1d91ccb675">
   <rect x="66.5" y="25.8" width="1004.4" height="443.52"/>
  </clipPath>
 </defs>
</svg>
